<svg id="Layer_1" data-name="Layer 1" xmlns="http://www.w3.org/2000/svg" viewBox="0 0 224.72 249.17"><defs><style>.cls-1,.cls-4,.cls-5,.cls-6{fill:none;}.cls-1,.cls-2,.cls-3,.cls-4,.cls-5{stroke:#836be8;}.cls-1,.cls-2,.cls-3,.cls-4,.cls-5,.cls-6{stroke-miterlimit:10;}.cls-1,.cls-2,.cls-4{stroke-width:5px;}.cls-2,.cls-3{fill:#fff;}.cls-3{stroke-width:6.5px;}.cls-4,.cls-5,.cls-6{stroke-linecap:round;}.cls-5,.cls-6{stroke-width:4px;}.cls-6{stroke:#71ca91;}</style></defs><title>icons</title><rect class="cls-1" x="58.13" y="59.98" width="104.69" height="186.68" rx="24.04" ry="24.04"/><path class="cls-2" d="M191.91,114.39H169.15l-1.4-8.51c0-3.4-2.36-6.19-5.25-6.19H138.89c-2.89,0-5.25,2.78-5.25,6.19l-1.4,8.51H109.48a5.21,5.21,0,0,0-5.2,5.2V178.3a5.21,5.21,0,0,0,5.2,5.2h82.43a5.21,5.21,0,0,0,5.2-5.2V119.59A5.21,5.21,0,0,0,191.91,114.39Z"/><circle class="cls-3" cx="150.95" cy="147.65" r="20.63"/><line class="cls-4" x1="68.44" y1="88.35" x2="84.94" y2="71.84"/><line class="cls-4" x1="98.87" y1="73.39" x2="70.25" y2="102.01"/><line class="cls-4" x1="58.13" y1="213.15" x2="162.81" y2="213.15"/><circle class="cls-5" cx="110.73" cy="228.62" r="7.22"/><line class="cls-6" x1="143.3" y1="2" x2="156.71" y2="15.41"/><line class="cls-6" x1="143.3" y1="15.41" x2="156.71" y2="2"/><line class="cls-6" x1="2" y1="126.8" x2="15.41" y2="140.21"/><line class="cls-6" x1="2" y1="140.21" x2="15.41" y2="126.8"/><circle class="cls-6" cx="16.61" cy="87.57" r="7.22"/><circle class="cls-6" cx="197.11" cy="59.73" r="10.31"/><line class="cls-6" x1="199.51" y1="209.83" x2="222.72" y2="233.03"/><line class="cls-6" x1="199.51" y1="233.03" x2="222.72" y2="209.83"/></svg>