<svg id="Layer_1" data-name="Layer 1" xmlns="http://www.w3.org/2000/svg" viewBox="0 0 273.5 266"><defs><style>.cls-1,.cls-3,.cls-4,.cls-5{fill:none;}.cls-1,.cls-2,.cls-3,.cls-5{stroke:#836be8;}.cls-1,.cls-2,.cls-3,.cls-4{stroke-linecap:round;}.cls-1,.cls-2,.cls-3,.cls-4,.cls-5{stroke-miterlimit:10;}.cls-1,.cls-2{stroke-width:5px;}.cls-2{fill:#fff;}.cls-3{stroke-width:4.22px;}.cls-4{stroke:#71ca91;stroke-width:4px;}.cls-5{stroke-width:11.5px;}</style></defs><title>icons</title><ellipse class="cls-1" cx="133" cy="156.75" rx="75" ry="96.75"/><path class="cls-2" d="M217.94,182.5a724,724,0,0,0-169.89,0,14.69,14.69,0,0,1-14.53-16.87A407.11,407.11,0,0,1,43.72,97.72,17.87,17.87,0,0,1,61.39,82.5a643,643,0,0,1,143.22,0,17.87,17.87,0,0,1,17.68,15.22,369.41,369.41,0,0,1,10.19,67.91A14.69,14.69,0,0,1,217.94,182.5Z"/><path class="cls-3" d="M114.5,214q18.5,10.59,37,0"/><line class="cls-1" x1="52.25" y1="108.75" x2="68.25" y2="92.75"/><line class="cls-1" x1="81.75" y1="94.25" x2="54" y2="122"/><line class="cls-4" x1="219.5" y1="213" x2="232.5" y2="226"/><line class="cls-4" x1="219.5" y1="226" x2="232.5" y2="213"/><line class="cls-4" x1="35.5" y1="44.5" x2="48.5" y2="57.5"/><line class="cls-4" x1="35.5" y1="57.5" x2="48.5" y2="44.5"/><line class="cls-4" x1="208" y1="39.5" x2="230.5" y2="62"/><line class="cls-4" x1="208" y1="62" x2="230.5" y2="39.5"/><circle class="cls-4" cx="264.5" cy="196.5" r="7"/><circle class="cls-4" cx="174" cy="9" r="7"/><circle class="cls-4" cx="42" cy="253.5" r="10.5"/><circle class="cls-4" cx="10.75" cy="89.25" r="8.75"/><line class="cls-5" x1="133" y1="89" x2="133" y2="60"/></svg>