<svg id="Layer_1" data-name="Layer 1" xmlns="http://www.w3.org/2000/svg" viewBox="0 0 35.4 35.4"><defs><style>.cls-1{fill:#f1f1f1;}.cls-2{fill:#b8b8b8;}</style></defs><title>socialicons</title><rect class="cls-1" width="35.4" height="35.4" rx="6.92" ry="6.92"/><path class="cls-2" d="M30.1,10.71a1.62,1.62,0,0,0-2.38-1.85,7.4,7.4,0,0,1-1.59.71,6.12,6.12,0,0,0-9.79,4A11.21,11.21,0,0,1,10,9.72a1.62,1.62,0,0,0-1.25-.6H8.62a1.62,1.62,0,0,0-1.27.8A6.11,6.11,0,0,0,6.52,13a6.2,6.2,0,0,0,.37,2.11,1.63,1.63,0,0,0-.41,1.08A6.21,6.21,0,0,0,8.1,20.38a1.6,1.6,0,0,0,0,.85A6.1,6.1,0,0,0,9.95,24a7.48,7.48,0,0,1-1.66.18,7.87,7.87,0,0,1-.89-.05H7.22a1.62,1.62,0,0,0-.87,3,14.39,14.39,0,0,0,7.77,2.28A14.27,14.27,0,0,0,28.54,15.13,10.72,10.72,0,0,0,30.45,13a1.61,1.61,0,0,0,.33-1A1.62,1.62,0,0,0,30.1,10.71ZM26.9,14.36c0,.19,0,.39,0,.58A12.8,12.8,0,0,1,7.22,25.72a9.75,9.75,0,0,0,1.07.06,9,9,0,0,0,5.59-1.93,4.5,4.5,0,0,1-4.2-3.12,4.47,4.47,0,0,0,2-.08A4.5,4.5,0,0,1,8.1,16.24v-.06a4.49,4.49,0,0,0,2,.56,4.5,4.5,0,0,1-1.39-6A12.77,12.77,0,0,0,18,15.44a4.5,4.5,0,0,1,7.67-4.1,9,9,0,0,0,2.86-1.09,4.52,4.52,0,0,1-2,2.49A8.91,8.91,0,0,0,29.15,12,9,9,0,0,1,26.9,14.36Z"/></svg>