<svg id="Layer_1" data-name="Layer 1" xmlns="http://www.w3.org/2000/svg" viewBox="0 0 303.5 224"><defs><style>.cls-1,.cls-3,.cls-5,.cls-6{fill:none;}.cls-1,.cls-2,.cls-3,.cls-4,.cls-5{stroke:#836be8;}.cls-1,.cls-2,.cls-3,.cls-4,.cls-5,.cls-6{stroke-miterlimit:10;}.cls-1,.cls-2,.cls-3,.cls-4{stroke-width:5px;}.cls-2,.cls-4{fill:#fff;}.cls-3,.cls-4,.cls-5,.cls-6{stroke-linecap:round;}.cls-5{stroke-width:6.5px;}.cls-6{stroke:#71ca91;stroke-width:4px;}</style></defs><title>icons</title><rect class="cls-1" x="56.5" y="53.5" width="187.5" height="148.5" rx="12" ry="12"/><path class="cls-2" d="M256,221.5H44L39.5,205a6,6,0,0,1,6-6h209a6,6,0,0,1,6,6Z"/><line class="cls-3" x1="129.5" y1="210" x2="170.5" y2="210"/><line class="cls-3" x1="66.25" y1="79.75" x2="82.25" y2="63.75"/><line class="cls-3" x1="95.75" y1="65.25" x2="68" y2="93"/><circle class="cls-4" cx="219.25" cy="132.25" r="49"/><line class="cls-5" x1="219.5" y1="115.5" x2="219.5" y2="153.5"/><polyline class="cls-5" points="200.84 131.34 219.5 112.69 238.16 131.34"/><circle class="cls-6" cx="56.5" cy="9" r="7"/><line class="cls-6" x1="2" y1="165.5" x2="24.5" y2="188"/><line class="cls-6" x1="2" y1="188" x2="24.5" y2="165.5"/><line class="cls-6" x1="254" y1="16" x2="267" y2="29"/><line class="cls-6" x1="254" y1="29" x2="267" y2="16"/><line class="cls-6" x1="17" y1="47" x2="30" y2="60"/><line class="cls-6" x1="17" y1="60" x2="30" y2="47"/><circle class="cls-6" cx="289.75" cy="77.75" r="11.75"/></svg>