<svg id="Layer_1" data-name="Layer 1" xmlns="http://www.w3.org/2000/svg" viewBox="0 0 35.4 35.4"><defs><style>.cls-1{fill:#f1f1f1;}.cls-2{fill:#b8b8b8;}</style></defs><title>socialicons</title><rect class="cls-1" width="35.4" height="35.4" rx="6.92" ry="6.92"/><path class="cls-2" d="M15.16,31.56a.73.73,0,0,1-.73-.74V29.64c0-.75,0-1.78,0-3,0-2.61,0-6.21-.13-8.68H11.9a.76.76,0,0,1-.73-.75l0-3.53a.73.73,0,0,1,.73-.74h1.84a14.43,14.43,0,0,1,.2-2,6.22,6.22,0,0,1,1-2.57,4.85,4.85,0,0,1,1.5-1.35,7.45,7.45,0,0,1,3.81-1,12.26,12.26,0,0,1,4.17.81.73.73,0,0,1,.47.57,2.54,2.54,0,0,1,0,.39,5.45,5.45,0,0,1-.09.92c0,.28-.12.6-.21,1-.14.56-.31,1.1-.42,1.46l0,.14v0l0,.05,0,.07,0,.06,0,.05-.05.05-.05,0-.06,0-.06,0-.07,0-.06,0H23.4l-.08,0h-.08a5.36,5.36,0,0,0-1.78-.42,1.43,1.43,0,0,0-.54.09.83.83,0,0,0-.32.23,1.26,1.26,0,0,0-.18.28,2.6,2.6,0,0,0-.19.61,5.37,5.37,0,0,0-.09.71h2l.26,0,.2,0h.18a.75.75,0,0,1,.52.26.85.85,0,0,1,.22.57v3.27a.73.73,0,0,1-.73.73H20.5c0,1.4,0,4.12.07,6.69,0,3.13.05,6,.05,6a.73.73,0,0,1-.73.74ZM12.63,16.48c.79,0,1.78,0,2.41,0a.73.73,0,0,1,.7.69c.13,2.47.16,6.5.16,9.45,0,1.46,0,2.7,0,3.44l3.25,0,0-5.31c0-3.13-.06-6.5-.08-7.41a.74.74,0,0,1,.7-.75c.58,0,1.1,0,1.54,0l.53,0H22V14.65l-1,0-1.29,0h-.35a.66.66,0,0,1-.71-.64v-.2a7.62,7.62,0,0,1,.16-1.7,3.28,3.28,0,0,1,.6-1.34,2.28,2.28,0,0,1,.74-.61,2.74,2.74,0,0,1,1.28-.29,5.51,5.51,0,0,1,1.56.26l.1-.36c.14-.5.24-.94.3-1.29,0-.15,0-.29.06-.42a10.33,10.33,0,0,0-3.18-.56,6,6,0,0,0-3.08.78,3.4,3.4,0,0,0-1.06.95,4.17,4.17,0,0,0-.6,1.25,12.25,12.25,0,0,0-.38,3.17.74.74,0,0,1-.69.71c-.35,0-.84,0-1.55,0h-.31Z"/><path class="cls-2" d="M24.71,7.51a.53.53,0,0,0-.34-.41,12.16,12.16,0,0,0-4.1-.8,7.28,7.28,0,0,0-3.71.95h0a4.66,4.66,0,0,0-1.44,1.3,6.06,6.06,0,0,0-1,2.49,14.76,14.76,0,0,0-.21,2.13h-2a.53.53,0,0,0-.54.53l0,3.53a.55.55,0,0,0,.53.55h.37c.52,0,1.49,0,2.24,0,.11,2.43.14,6.06.14,8.88,0,1.19,0,2.23,0,3,0,.37,0,.67,0,.87v.32a.53.53,0,0,0,.53.54l4.73,0a.53.53,0,0,0,.53-.54s0-2.91-.05-6c0-2.7-.05-5.56-.07-6.89h2.46a.53.53,0,0,0,.54-.53V14.07a.64.64,0,0,0-.16-.42.59.59,0,0,0-.38-.2h-.18c-.11,0-.27,0-.47,0-.59,0-1.49,0-2.2,0a6,6,0,0,1,.1-.94,2.78,2.78,0,0,1,.21-.66,1.45,1.45,0,0,1,.21-.33,1,1,0,0,1,.4-.29,1.59,1.59,0,0,1,.61-.1,5.4,5.4,0,0,1,1.85.43h.33l0,0,0,0,0,0,0,0,0,0,0,0,0,0,0,0,0,0,0,0v0c.11-.35.29-.95.45-1.57.08-.31.15-.64.21-.95a5.3,5.3,0,0,0,.09-.88A2.33,2.33,0,0,0,24.71,7.51Zm-4.46,2.87a2.09,2.09,0,0,0-.68.56A3.11,3.11,0,0,0,19,12.2a7.46,7.46,0,0,0-.16,1.66c0,.06,0,.13,0,.19a.47.47,0,0,0,.51.45c.76,0,2,0,2.75,0h.11v2.28c-.27,0-.62,0-1,0-.57,0-1.15,0-1.53,0a.54.54,0,0,0-.51.55c0,.91,0,4.28.08,7.41,0,1.57,0,3.08,0,4.2,0,.54,0,1,0,1.31l-3.65,0c0-.7,0-2,0-3.64,0-3,0-7-.16-9.44a.53.53,0,0,0-.51-.5c-.72,0-1.92,0-2.61,0V14.24h.51c.52,0,1.12,0,1.54,0a.53.53,0,0,0,.5-.52,12.35,12.35,0,0,1,.39-3.22A4.39,4.39,0,0,1,16,9.17a3.59,3.59,0,0,1,1.12-1h0a6.22,6.22,0,0,1,3.18-.8,10.79,10.79,0,0,1,3.4.62,4.9,4.9,0,0,1-.07.59c-.07.41-.19.88-.31,1.31l-.16.55a5.6,5.6,0,0,0-1.69-.31A2.54,2.54,0,0,0,20.26,10.38Z"/></svg>