<svg id="Layer_1" data-name="Layer 1" xmlns="http://www.w3.org/2000/svg" viewBox="0 0 109.56 16.74">
  <defs>
    <style>
      .cls-1 {
        fill: #fff;
      }

      .cls-2 {
        fill: #71ca91;
      }
    </style>
  </defs>
  <title>StitchVRlogo</title>
  <g>
    <path class="cls-1" d="M15.39,12a4.91,4.91,0,0,1-.21,1.49,4.45,4.45,0,0,1-.55,1.17,3.7,3.7,0,0,1-.81.86,5,5,0,0,1-1,.58,4.78,4.78,0,0,1-1,.33,4.67,4.67,0,0,1-1,.11H.13V13.73H10.9a1.64,1.64,0,0,0,1.25-.47A1.77,1.77,0,0,0,12.6,12a2,2,0,0,0-.12-.71,1.65,1.65,0,0,0-.34-.56,1.5,1.5,0,0,0-.54-.37,1.85,1.85,0,0,0-.7-.13H4.48A5,5,0,0,1,3,10a4.37,4.37,0,0,1-1.46-.78A4.24,4.24,0,0,1,.45,7.8,4.62,4.62,0,0,1,0,5.67,4.59,4.59,0,0,1,.45,3.55,4.28,4.28,0,0,1,3,1.36a5,5,0,0,1,1.46-.24H14V3.91H4.48a1.6,1.6,0,0,0-1.24.48,1.81,1.81,0,0,0-.45,1.28,1.77,1.77,0,0,0,.45,1.27,1.63,1.63,0,0,0,1.24.47h6.45a5,5,0,0,1,1,.12,4.81,4.81,0,0,1,1,.35,4.86,4.86,0,0,1,1,.6,4,4,0,0,1,.8.86,4.27,4.27,0,0,1,.55,1.16A5,5,0,0,1,15.39,12Z"/>
    <path class="cls-1" d="M27.47,7.7H22.59v8.82H19.77V7.7H16.13V4.91h3.63V1.12h2.83V4.91h4.88Z"/>
    <path class="cls-1" d="M32.14,2.52H29.35V0h2.79Zm0,14H29.35V4.91h2.79Z"/>
    <path class="cls-1" d="M45.38,7.7H40.5v8.82H37.67V7.7H34V4.91h3.63V1.12H40.5V4.91h4.88Z"/>
    <path class="cls-1" d="M58.42,16.52H50.84a4.47,4.47,0,0,1-1.27-.2,3.7,3.7,0,0,1-2.25-1.89,3.9,3.9,0,0,1-.39-1.83V8.82A4.12,4.12,0,0,1,47,8a4.29,4.29,0,0,1,.28-.88,4.08,4.08,0,0,1,.5-.83,3.3,3.3,0,0,1,.74-.7,3.8,3.8,0,0,1,1-.48,4.22,4.22,0,0,1,1.29-.18h7.57V7.7H50.84A1.14,1.14,0,0,0,50,8a1.16,1.16,0,0,0-.28.86V12.6a1.13,1.13,0,0,0,.29.84,1.15,1.15,0,0,0,.85.29h7.55Z"/>
    <path class="cls-1" d="M63.56,16.52H60.77V0h2.79Zm10.08,0H70.84V8.82A1.14,1.14,0,0,0,70.57,8a1.13,1.13,0,0,0-.84-.28h-5V4.91h5a4.16,4.16,0,0,1,.84.09,4.32,4.32,0,0,1,.88.28,4.08,4.08,0,0,1,.83.5,3.3,3.3,0,0,1,.7.74,3.81,3.81,0,0,1,.48,1,4.22,4.22,0,0,1,.18,1.29Z"/>
    <path class="cls-2" d="M91.92,1.12,84.63,16a1.35,1.35,0,0,1-.51.55,1.39,1.39,0,0,1-.75.21,1.37,1.37,0,0,1-.74-.21,1.43,1.43,0,0,1-.52-.55L74.83,1.12H78l5.41,11.1,5.44-11.1Z"/>
    <path class="cls-2" d="M108.89,6.29A5.7,5.7,0,0,1,108.66,8,4.81,4.81,0,0,1,108,9.33a4.53,4.53,0,0,1-.93,1A5.55,5.55,0,0,1,106,11a5.26,5.26,0,0,1-1.16.38,5.54,5.54,0,0,1-1.1.12l5.83,5h-4.32l-5.82-5h-2V8.69h6.32a3.23,3.23,0,0,0,1-.22,2.4,2.4,0,0,0,.75-.48,2,2,0,0,0,.49-.73,2.58,2.58,0,0,0,.17-1V4.53a.87.87,0,0,0-.06-.36.44.44,0,0,0-.15-.18.45.45,0,0,0-.19-.07H96.29V16.52H93.5v-14a1.43,1.43,0,0,1,.4-1,1.32,1.32,0,0,1,.45-.3,1.44,1.44,0,0,1,.56-.11h10.6a3.36,3.36,0,0,1,1.58.34,3.21,3.21,0,0,1,1,.85,3.26,3.26,0,0,1,.58,1.1,3.83,3.83,0,0,1,.18,1.11Z"/>
  </g>
</svg>
